<?xml version="1.0" encoding="utf-8"?>
<!-- Generator: Adobe Illustrator 16.0.0, SVG Export Plug-In . SVG Version: 6.00 Build 0)  -->
<!DOCTYPE svg PUBLIC "-//W3C//DTD SVG 1.1//EN" "http://www.w3.org/Graphics/SVG/1.1/DTD/svg11.dtd">
<svg version="1.1" id="Layer_1" xmlns="http://www.w3.org/2000/svg" xmlns:xlink="http://www.w3.org/1999/xlink" x="0px" y="0px"
	 width="400px" height="12.582px" viewBox="0 0 400 12.582" enable-background="new 0 0 400 12.582" xml:space="preserve">
<path fill="#FFFFFF" d="M0,7.596h3.126V4.414h1v3.182h3.13v0.931h-3.13v3.179h-1V8.526H0V7.596z M16.018,6.827
	c-0.572,0.232-1.733,0.465-2.558,0.465c-2.375,0-3.074-1.001-3.074-2.789V3.521c0-1.788,0.895-2.842,3.292-2.842
	c2.445,0,3.375,1.001,3.375,2.842v5.041c0,2.859-0.891,4.021-4.361,4.021c-0.48,0-1.428-0.09-2.034-0.269l0.122-0.875
	c0.467,0.106,1.2,0.214,1.737,0.214c3.074,0,3.501-0.751,3.501-3.108V6.827z M16.018,5.826V3.485c0-1.466-0.895-1.876-2.34-1.876
	c-1.681,0-2.252,0.518-2.252,1.876v1.072c0,1.252,0.393,1.805,2.074,1.805C14.354,6.362,15.376,6.095,16.018,5.826z M19.563,2.591
	l3.021-1.733h0.926v11.545h-1.035V2.091l-2.415,1.358L19.563,2.591z M37.638,6.827c-0.572,0.232-1.733,0.465-2.559,0.465
	c-2.375,0-3.073-1.001-3.073-2.789V3.521c0-1.788,0.895-2.842,3.292-2.842c2.444,0,3.375,1.001,3.375,2.842v5.041
	c0,2.859-0.891,4.021-4.362,4.021c-0.48,0-1.427-0.09-2.034-0.269l0.122-0.875c0.467,0.106,1.201,0.214,1.738,0.214
	c3.074,0,3.501-0.751,3.501-3.108V6.827z M37.638,5.826V3.485c0-1.466-0.895-1.876-2.34-1.876c-1.681,0-2.253,0.518-2.253,1.876
	v1.072c0,1.252,0.393,1.805,2.074,1.805C35.975,6.362,36.996,6.095,37.638,5.826z M47.099,6.505
	c1.825,0.805,2.414,1.608,2.414,2.967v0.357c0,1.913-1.074,2.753-3.61,2.753c-2.541,0-3.611-0.84-3.611-2.753V9.472
	c0-1.358,0.589-2.162,2.375-2.967c-1.641-0.751-2.074-1.716-2.074-2.806V3.466c0-1.554,0.769-2.788,3.31-2.788
	c2.536,0,3.305,1.233,3.305,2.788v0.232C49.207,4.932,48.779,5.754,47.099,6.505z M45.902,7.006
	c-1.986,0.786-2.576,1.215-2.576,2.411v0.358c0,1.412,0.681,1.877,2.576,1.877c1.895,0,2.571-0.465,2.571-1.877V9.417
	C48.474,8.221,47.884,7.828,45.902,7.006z M45.902,6.04c1.733-0.75,2.27-1.161,2.27-2.269V3.324c0-1.073-0.537-1.716-2.27-1.716
	c-1.733,0-2.271,0.625-2.271,1.716v0.447C43.632,4.843,44.169,5.29,45.902,6.04z M52.643,11.474c1.537-1.913,1.969-2.396,3.27-4.093
	c1.397-1.805,1.969-2.573,1.969-3.593V3.502c0-1.358-0.271-1.894-2.414-1.894c-0.838,0-1.895,0.214-2.52,0.411l-0.196-0.894
	c0.625-0.214,1.786-0.446,2.825-0.446c2.768,0,3.34,1.019,3.34,2.788v0.269c0,1.287-0.48,1.966-2.178,4.236
	c-1.126,1.501-1.555,1.983-2.772,3.503h5.042v0.93h-6.365V11.474z M62.195,11.474c1.537-1.913,1.965-2.396,3.27-4.093
	c1.393-1.805,1.964-2.573,1.964-3.593V3.502c0-1.358-0.266-1.894-2.41-1.894c-0.842,0-1.895,0.214-2.523,0.411L62.3,1.125
	c0.629-0.214,1.79-0.446,2.825-0.446c2.772,0,3.344,1.019,3.344,2.788v0.269c0,1.287-0.484,1.966-2.183,4.236
	c-1.126,1.501-1.554,1.983-2.768,3.503h5.039v0.93h-6.361V11.474z M70.975,2.591l3.021-1.733h0.926v11.545h-1.035V2.091
	l-2.414,1.358L70.975,2.591z M78.235,0.858h6.684v0.875l-5.007,10.67h-1.053l5.003-10.617h-5.627V0.858z M91.979,6.505
	c1.825,0.805,2.415,1.608,2.415,2.967v0.357c0,1.913-1.07,2.753-3.611,2.753c-2.537,0-3.611-0.84-3.611-2.753V9.472
	c0-1.358,0.59-2.162,2.38-2.967c-1.646-0.751-2.074-1.716-2.074-2.806V3.466c0-1.554,0.769-2.788,3.305-2.788
	c2.541,0,3.309,1.233,3.309,2.788v0.232C94.092,4.932,93.66,5.754,91.979,6.505z M90.783,7.006
	c-1.982,0.786-2.572,1.215-2.572,2.411v0.358c0,1.412,0.677,1.877,2.572,1.877s2.576-0.465,2.576-1.877V9.417
	C93.358,8.221,92.769,7.828,90.783,7.006z M90.783,6.04c1.733-0.75,2.27-1.161,2.27-2.269V3.324c0-1.073-0.537-1.716-2.27-1.716
	s-2.27,0.625-2.27,1.716v0.447C88.513,4.843,89.05,5.29,90.783,6.04z M99.1,6.434c0.572-0.232,1.733-0.465,2.559-0.465
	c2.375,0,3.073,1.001,3.073,2.789V9.74c0,1.787-0.843,2.842-3.292,2.842c-2.444,0-3.375-1.055-3.375-2.842V4.7
	c0-2.86,0.947-4.021,4.361-4.021c0.48,0,1.428,0.072,2.035,0.25l-0.122,0.876c-0.468-0.108-1.201-0.197-1.733-0.197
	c-2.986,0-3.506,0.75-3.506,3.11V6.434z M99.1,7.435v2.341c0,1.467,0.895,1.877,2.34,1.877c1.681,0,2.253-0.52,2.253-1.877V8.703
	c0-1.251-0.393-1.805-2.074-1.805C100.763,6.898,99.746,7.167,99.1,7.435z M107.364,0.858h6.684v0.875l-5.003,10.67h-1.057
	l5.008-10.617h-5.632V0.858z M115.982,0.858h6.684v0.875l-5.003,10.67h-1.057l5.008-10.617h-5.632V0.858z M136.458,12.403h-1.039
	V3.109h1.039V12.403z M156.121,12.403h-0.895l-0.07-0.679c-0.838,0.517-1.803,0.857-2.946,0.857c-1.537,0-2.253-0.877-2.253-2.432
	c0-1.84,0.838-2.412,2.554-2.412h2.576V6.04c0-1.197-0.629-1.59-2.057-1.59c-0.86,0-1.768,0.125-2.576,0.286l-0.157-0.875
	c0.694-0.196,1.786-0.339,2.681-0.339c2.249,0,3.143,0.893,3.143,2.519V12.403z M155.087,8.668h-2.541
	c-1.196,0-1.555,0.356-1.555,1.5c0,1.02,0.214,1.484,1.433,1.484c0.855,0,1.877-0.341,2.663-0.893V8.668z M165.691,12.403h-0.895
	l-0.07-0.679c-0.843,0.517-1.808,0.857-2.951,0.857c-1.537,0-2.253-0.877-2.253-2.432c0-1.84,0.843-2.412,2.559-2.412h2.571V6.04
	c0-1.197-0.625-1.59-2.057-1.59c-0.855,0-1.768,0.125-2.571,0.286l-0.162-0.875c0.699-0.196,1.786-0.339,2.681-0.339
	c2.253,0,3.148,0.893,3.148,2.519V12.403z M164.652,8.668h-2.537c-1.196,0-1.554,0.356-1.554,1.5c0,1.02,0.214,1.484,1.428,1.484
	c0.86,0,1.877-0.341,2.663-0.893V8.668z M173.24,4.539c-0.913,0.393-1.912,1.055-2.755,1.609v6.255h-1.035V3.699h0.93l0.053,1.323
	c0.93-0.608,1.86-1.197,2.681-1.5L173.24,4.539z M180.443,12.241c-0.502,0.197-1.201,0.341-1.825,0.341
	c-1.375,0-1.964-0.502-1.964-1.877V4.593h-1.681V3.699h1.681V1.644l1.035-0.143v2.198h2.663l-0.104,0.894h-2.559v6.005
	c0,0.769,0.109,1.09,1.004,1.09c0.48,0,1.035-0.088,1.555-0.249L180.443,12.241z M183.486,2.055V0.143h1.035v1.913H183.486z
	 M183.486,12.403V3.699h1.035v8.705H183.486z M191.891,5.218c0.196-1.125,0.677-1.608,2.017-1.608c0.555,0,1.537,0.178,2.109,0.446
	l-0.659,3.789c0.179,0.089,0.428,0.161,0.716,0.161c1.624,0,2.23-1.233,2.23-2.735c0-2.627-1.676-4.128-4.483-4.128
	c-2.663,0-4.807,2.109-4.807,5.308c0,3.127,1.733,5.291,5.431,5.291c1.196,0,2.323-0.269,3.467-0.769l0.271,0.714
	c-1.109,0.608-2.379,0.895-3.737,0.895c-3.951,0-6.343-2.414-6.343-6.131c0-3.61,2.484-6.13,5.719-6.13
	c3.519,0,5.379,2.091,5.379,4.916c0,2.073-1.035,3.539-3.126,3.539c-0.59,0-1.109-0.214-1.415-0.555
	c-0.498,0.251-1.069,0.502-1.859,0.502c-1.035,0-1.393-0.645-1.249-1.503L191.891,5.218z M195.069,4.575
	c-0.463-0.125-0.891-0.196-1.266-0.196c-0.698,0-0.965,0.231-1.074,0.839c-0.104,0.697-0.249,1.359-0.357,2.055
	c-0.088,0.537,0.057,0.68,0.646,0.68c0.445,0,1.144-0.251,1.555-0.537L195.069,4.575z M208.59,12.403h-0.895l-0.07-0.679
	c-0.843,0.517-1.808,0.857-2.951,0.857c-1.537,0-2.253-0.877-2.253-2.432c0-1.84,0.843-2.412,2.559-2.412h2.571V6.04
	c0-1.197-0.625-1.59-2.057-1.59c-0.855,0-1.768,0.125-2.571,0.286l-0.161-0.875c0.698-0.196,1.785-0.339,2.68-0.339
	c2.253,0,3.148,0.893,3.148,2.519V12.403z M207.551,8.668h-2.537c-1.196,0-1.554,0.356-1.554,1.5c0,1.02,0.214,1.484,1.428,1.484
	c0.86,0,1.877-0.341,2.663-0.893V8.668z M218.155,12.403h-0.895l-0.07-0.679c-0.838,0.517-1.803,0.857-2.947,0.857
	c-1.536,0-2.252-0.877-2.252-2.432c0-1.84,0.838-2.412,2.554-2.412h2.576V6.04c0-1.197-0.628-1.59-2.056-1.59
	c-0.86,0-1.769,0.125-2.576,0.286l-0.157-0.875c0.694-0.196,1.786-0.339,2.681-0.339c2.249,0,3.144,0.893,3.144,2.519V12.403z
	 M217.121,8.668h-2.541c-1.196,0-1.554,0.356-1.554,1.5c0,1.02,0.214,1.484,1.432,1.484c0.856,0,1.878-0.341,2.664-0.893V8.668z
	 M225.704,4.539c-0.913,0.393-1.912,1.055-2.754,1.609v6.255h-1.035V3.699h0.93l0.053,1.323c0.93-0.608,1.86-1.197,2.681-1.5
	L225.704,4.539z M234.073,12.403h-0.896l-0.069-0.679c-0.843,0.517-1.808,0.857-2.952,0.857c-1.537,0-2.252-0.877-2.252-2.432
	c0-1.84,0.842-2.412,2.558-2.412h2.572V6.04c0-1.197-0.625-1.59-2.057-1.59c-0.855,0-1.768,0.125-2.571,0.286l-0.162-0.875
	c0.699-0.196,1.786-0.339,2.681-0.339c2.252,0,3.148,0.893,3.148,2.519V12.403z M233.034,8.668h-2.537
	c-1.196,0-1.554,0.356-1.554,1.5c0,1.02,0.214,1.484,1.428,1.484c0.859,0,1.877-0.341,2.663-0.893V8.668z M243.154,12.403V5.361
	c0-0.643-0.34-0.875-0.947-0.875c-0.716,0-2.253,0.429-3.34,1v6.917h-1.039V0.143L238.867,0v4.468
	c0.93-0.448,2.445-0.947,3.484-0.947c1.357,0,1.842,0.768,1.842,1.965v6.917H243.154z M248.131,10.866h1.104v1.537h-1.104V10.866z
	 M253.261,2.055V0.143h1.039v1.913H253.261z M253.261,12.403V3.699h1.039v8.705H253.261z M263.56,12.403V5.361
	c0-0.643-0.341-0.875-0.947-0.875c-0.716,0-2.253,0.429-3.344,1v6.917h-1.035V3.699h0.908l0.074,0.787
	c0.93-0.448,2.484-0.965,3.536-0.965c1.362,0,1.842,0.768,1.842,1.965v6.917H263.56z M279.403,12.403h-1.035V3.109h1.035V12.403z
	 M294.173,12.403l-1.982-8.705h0.982l1.79,8.006l2.357-8.006h1.393l2.345,8.006l1.803-8.006h0.982l-1.982,8.705h-1.554l-2.288-7.954
	l-2.288,7.954H294.173z M307.746,12.403l-1.982-8.705h0.982l1.786,8.006l2.357-8.006h1.396l2.341,8.006l1.807-8.006h0.982
	l-1.986,8.705h-1.554l-2.288-7.954l-2.288,7.954H307.746z M321.319,12.403l-1.982-8.705h0.982l1.786,8.006l2.357-8.006h1.396
	l2.341,8.006l1.808-8.006h0.981l-1.986,8.705h-1.554l-2.288-7.954l-2.288,7.954H321.319z M333.051,10.866h1.108v1.537h-1.108V10.866
	z M343.991,12.403h-0.896l-0.069-0.679c-0.839,0.517-1.804,0.857-2.947,0.857c-1.536,0-2.253-0.877-2.253-2.432
	c0-1.84,0.839-2.412,2.555-2.412h2.575V6.04c0-1.197-0.628-1.59-2.056-1.59c-0.86,0-1.769,0.125-2.576,0.286l-0.157-0.875
	c0.694-0.196,1.786-0.339,2.681-0.339c2.248,0,3.144,0.893,3.144,2.519V12.403z M342.956,8.668h-2.541
	c-1.196,0-1.554,0.356-1.554,1.5c0,1.02,0.214,1.484,1.432,1.484c0.855,0,1.877-0.341,2.663-0.893V8.668z M353.557,12.403h-0.896
	l-0.069-0.679c-0.838,0.517-1.803,0.857-2.947,0.857c-1.537,0-2.253-0.877-2.253-2.432c0-1.84,0.839-2.412,2.555-2.412h2.575V6.04
	c0-1.197-0.629-1.59-2.056-1.59c-0.86,0-1.769,0.125-2.576,0.286l-0.157-0.875c0.694-0.196,1.785-0.339,2.681-0.339
	c2.248,0,3.144,0.893,3.144,2.519V12.403z M352.521,8.668h-2.541c-1.195,0-1.554,0.356-1.554,1.5c0,1.02,0.214,1.484,1.432,1.484
	c0.856,0,1.878-0.341,2.663-0.893V8.668z M361.105,4.539c-0.913,0.393-1.913,1.055-2.751,1.609v6.255h-1.039V3.699h0.93l0.053,1.323
	c0.93-0.608,1.859-1.197,2.681-1.5L361.105,4.539z M369.475,12.403h-0.896l-0.069-0.679c-0.843,0.517-1.808,0.857-2.951,0.857
	c-1.537,0-2.253-0.877-2.253-2.432c0-1.84,0.843-2.412,2.558-2.412h2.572V6.04c0-1.197-0.625-1.59-2.057-1.59
	c-0.855,0-1.769,0.125-2.571,0.286l-0.162-0.875c0.699-0.196,1.786-0.339,2.681-0.339c2.253,0,3.148,0.893,3.148,2.519V12.403z
	 M368.436,8.668h-2.537c-1.196,0-1.554,0.356-1.554,1.5c0,1.02,0.214,1.484,1.427,1.484c0.86,0,1.878-0.341,2.664-0.893V8.668z
	 M378.56,12.403V5.361c0-0.643-0.341-0.875-0.947-0.875c-0.716,0-2.253,0.429-3.345,1v6.917h-1.034V0.143L374.268,0v4.468
	c0.93-0.448,2.449-0.947,3.484-0.947c1.362,0,1.842,0.768,1.842,1.965v6.917H378.56z M383.532,10.866h1.104v1.537h-1.104V10.866z
	 M388.662,2.055V0.143h1.039v1.913H388.662z M388.662,12.403V3.699h1.039v8.705H388.662z M398.961,12.403V5.361
	c0-0.643-0.341-0.875-0.947-0.875c-0.716,0-2.253,0.429-3.34,1v6.917h-1.039V3.699h0.912l0.07,0.787
	c0.93-0.448,2.484-0.965,3.541-0.965c1.357,0,1.842,0.768,1.842,1.965v6.917H398.961z"/>
</svg>
