<?xml version="1.0" encoding="utf-8"?>
<!-- Generator: Adobe Illustrator 16.0.0, SVG Export Plug-In . SVG Version: 6.00 Build 0)  -->
<!DOCTYPE svg PUBLIC "-//W3C//DTD SVG 1.1//EN" "http://www.w3.org/Graphics/SVG/1.1/DTD/svg11.dtd">
<svg version="1.1" id="Layer_1" xmlns="http://www.w3.org/2000/svg" xmlns:xlink="http://www.w3.org/1999/xlink" x="0px" y="0px"
	 width="250px" height="88.479px" viewBox="0 0 250 88.479" enable-background="new 0 0 250 88.479" xml:space="preserve">
<linearGradient id="SVGID_1_" gradientUnits="userSpaceOnUse" x1="124.9995" y1="-48.9678" x2="124.9995" y2="124.523">
	<stop  offset="0" style="stop-color:#966C45"/>
	<stop  offset="0.25" style="stop-color:#D29665"/>
	<stop  offset="0.3993" style="stop-color:#F1AC76"/>
	<stop  offset="0.5352" style="stop-color:#EDAA74"/>
	<stop  offset="0.6567" style="stop-color:#E3A26E"/>
	<stop  offset="0.7728" style="stop-color:#D09564"/>
	<stop  offset="0.8848" style="stop-color:#B78357"/>
	<stop  offset="0.9944" style="stop-color:#966C45"/>
</linearGradient>
<path fill-rule="evenodd" clip-rule="evenodd" fill="url(#SVGID_1_)" d="M202.207,65.541c0.433-0.416,1.399-1.096,2.159-1.662
	c-0.119,1.512-0.481,3.48-0.393,4.814c0.072,1.066,0.521,2.162,1.146,3.021c0.377,0.514,0.869,0.959,1.392,1.324
	c2.188,1.537,3.597,0.752,4.634-1.68c0.898-2.119,2.212-4.678,3.83-7.197c1.924-2.994,4.28-5.932,6.89-8.006
	c1.831-1.459,2.856-0.881,3.221,1.465c0.372,2.424,0.446,4.855,1.001,7.23c1.026,4.377,4.24,6.889,9.623,6.387
	c0,0,5.996-0.166,13.899-8.945c0.967-1.074-0.164-1.436-0.164-1.436c-2.192,1.916-4.035,3.982-6.645,5.281
	c-1.528,0.758-4.571,1.184-6.077,0.111c-1.121-0.793-1.87-2.285-2.272-3.543c-0.714-2.262-1.058-4.096-1.648-6.936
	c-0.603-2.906-2.104-6.016-5.661-5.703c-0.71,0.061-1.648,0.203-2.288,0.529c-2.104,1.074-3.642,2.635-5.302,4.279
	c-1.743,1.73-3.462,3.494-5.061,5.367c-0.853,0.996-1.67,2.021-2.425,3.094c0.295-3.51-0.008-4.84,3.718-8.406
	c6.123-5.861,11.446-12.518,16.936-18.982c2.951-3.474,5.54-7.291,6.921-11.728c1.476-4.765-1.618-8.365-6.542-7.736
	c-3.871,0.495-6.88,2.666-9.49,5.288c-10.557,10.598-16.462,23.558-19.029,38.167c-0.13,0.734-0.069,1.699-0.543,2.158
	c-3.052,2.957-6.53,5.793-10.849,6.621c-1.922,0.373-4.449-0.877-4.57-2.5c-0.032-0.434-0.118-0.85-0.118-1.287
	c-0.012-1.029,0.354-1.967,0.436-2.973c0.048-0.572,0.021-1.141-0.004-1.709c-0.012-0.279-0.142-0.947,0.101-1.15
	c3.426-2.846,2.808-7.637-1.68-8.895c-3.427-0.955-6.587-0.846-9.729,0.516c-5.219,2.262-9.404,5.719-12.753,10.283
	c-2.531,3.449-5.932,6.266-9.646,8.164c-1.776,0.908-3.853,1.332-5.845,1.686c-1.871,0.334-2.756-1.064-2.325-2.936
	c0.29-1.244,0.758-2.453,1.211-3.654c0.894-2.35,0.322-3.906-1.777-5.26c-0.688-0.441-1.375-0.889-2.027-1.375
	c-0.804-0.602-0.774-1.227-0.114-2.072c0.827-1.045,1.641-2.15,2.189-3.355c0.954-2.094-0.116-3.912-2.356-4.332
	c-2.319-0.43-5.944,1.363-7.197,3.562c-1.163,2.037-0.834,3.74,1.185,6.184c0.104,0.125,0.228,0.254,0.43,0.586
	c-1.697,1.662-3.422,3.588-5.281,5.156c-2.642,2.23-5.426,4.676-8.946,5.387c-2.236,0.453-4.449-0.619-4.907-2.408
	c-0.726-2.791,0.737-3.211,0.255-7.086c-0.019-0.139,0.623-0.666,0.735-0.799c2.946-3.41,1.509-7.182-2.597-8.549
	c-3.061-1.016-6.331-0.428-9.235,0.795c-1.643,0.689-3.207,1.504-4.694,2.482c-2.495,1.631-4.917,3.566-6.812,5.879
	c-1.953,2.383-3.658,4.828-5.864,7.051c-2.453,2.465-5.22,4.6-8.551,5.715c-2.257,0.75-5.671,1.174-7.096-1.25
	c-0.301-0.508-0.54-1.176-0.621-1.762c-0.506-3.822,0.533-7.865,2.205-11.303c0.598-1.215,1.341-2.35,2.031-3.512
	c0.54-0.912,1.634-2.193,1.733-3.271c0.054-0.654,0.132-0.521,0.015-1.82l2.427-1.873c6.814-5.608,13.003-11.142,17.319-18.969
	c2.355-4.28,3.637-9.381,2.312-14.258C101.127,6.806,96.198,2.96,89.501,1.195c-3.062-0.811-6.094-1.168-9.155-1.193
	c-1.658-0.013-3.33,0.066-5.012,0.229c-1.928,0.187-3.855,0.39-5.755,0.759c-14.392,2.784-26.934,9.469-38.343,18.452
	C20.969,27.53,12.347,37.064,6.208,48.686c-3.3,6.258-5.621,12.846-6.099,19.979c-0.26,3.916-0.171,7.627,1.556,11.229
	c0.634,1.314,1.478,2.596,2.491,3.645c1.017,1.055,2.423,1.836,3.7,2.559c4.607,2.605,10.753,2.908,15.81,1.715
	c4.688-1.104,9.209-2.898,13.376-5.311c7.55-4.367,14.346-9.885,20.733-15.76c2.433-2.242,5.092-4.959,7.619-7.322
	c-0.242,2.395-0.903,5.027-1.066,7.221c-0.401,5.359,1.864,9.162,7.799,9.961c1.92,0.258,3.866,0.309,5.784-0.006
	c2.248-0.367,4.106-1.602,5.938-2.881c1.836-1.289,3.649-2.633,5.374-4.068c1.013-0.838,2.001-1.707,2.92-2.645l0.82-0.848
	c0,0-1.419,1.896-0.892,4.758c0,0,0.179,3.047,4.399,2.959c0,0,4.118,0.527,10.036-4.98c0.757-0.705,1.561-1.363,2.323-2.076
	c0.787-0.543,1.964-1.781,2.766-2.42c-0.114,7.85,6.651,8.98,12.765,6.572c1.348-0.535,2.648-1.281,3.876-2.02
	c3.774-2.264,7.161-5.443,10.308-8.678c0.43-0.445,1.479-0.924,1.675-0.752c0.638,0.568,1.272,1.379,1.417,2.186
	c0.127,0.709-0.335,1.566-0.666,2.299c-0.526,1.172-1.253,2.258-1.728,3.447c-1.103,2.758-0.15,4.957,2.559,6.17
	c2.313,1.039,4.676,0.912,7.045,0.25c3.73-1.037,6.924-3.088,9.999-5.359c0.859-0.631,1.712-1.287,2.788-2.094
	c-0.171,0.914-0.287,1.488-0.384,2.057c-0.461,2.748,0.815,5.221,3.568,5.393c1.871,0.121,3.786-0.582,5.48-1.396
	c1.773-0.857,3.274-2.049,4.804-3.264c1.447-1.141,2.971-2.289,4.247-3.631c0.356-0.375,0.911-0.779,1.312-1.109
	c0,0-0.306,7.666,7.178,7.666c0,0,3.786-0.08,6.878-1.711C194.716,70.418,200.293,67.385,202.207,65.541z M85.409,42.79
	c1.704-1.575,3.257-3.383,4.754-5.15c4.11-4.847,7.707-10.056,9.167-16.402c1.74-7.563-1.883-14.171-9.464-15.74
	c-6.771-1.401-13.765-0.479-20.221,1.61c-20.862,6.748-36.809,20.479-48.187,38.965c-4.946,8.035-7.669,16.768-7.965,26.365
	c0.208,1.797,0.261,3.607,0.623,5.373c0.96,4.701,3.942,7.018,8.732,6.859c5.453-0.182,10.17-2.564,14.734-5.23
	c9.062-5.297,16.905-12.178,24.303-19.529c4.306-4.277,8.107-9.062,12.133-13.619c2.287-2.575,3.333-3.063,5.449-0.531l1.087,1.322
	L85.409,42.79z M234.595,21.766c-1.401,0.628-2.808,2.137-3.857,3.204c-1.239,1.258-2.168,2.567-3.251,3.961
	c-6.038,7.761-10.672,16.299-13.514,25.788c7.565-7.949,14.907-16.064,20.49-25.569c0.926-1.576,1.719-3.299,2.275-5.041
	C236.738,24.109,238.223,20.14,234.595,21.766z M114.28,54.783c-2.425,0.988-4.632,2.387-6.679,4.008
	c-2.012,1.588-3.745,3.592-5.305,5.625c-0.444,0.58-0.846,1.191-1.175,1.846c-0.161,0.33-0.312,0.664-0.441,1.004
	c-0.135,0.344-0.333,0.664-0.376,1.039c-0.028,0.271-0.072,0.775,0.171,0.977c0.933,0.773,2.565-0.504,3.368-0.992
	c0.41-0.25,0.774-0.547,1.154-0.836c3.287-2.486,4.06-2.947,8.742-7.947c0.884-0.945,2.217-2.395,3.866-2.16
	c0.327,0.045,0.664,0.154,1.011,0.346c-0.165-0.084,0.18-0.826,0.282-1.25c0.324-1.354-0.547-2.143-2.631-2.174
	C115.887,54.357,115.039,54.473,114.28,54.783z M186.261,54.357c-0.61-0.025-1.268,0.084-1.857,0.244
	c-1.155,0.318-2.273,0.818-3.316,1.4c-4.192,2.348-7.565,5.625-10.244,9.605c-0.49,0.727-0.888,1.551-1.151,2.383
	c-0.375,1.162,0.258,1.805,1.376,1.338c1.133-0.471,2.171-1.209,3.196-1.859c3.456-2.195,5.779-5.221,8.655-7.844
	c1.015-0.93,3.57-3.16,4.863-1.578C189.486,54.357,186.261,54.357,186.261,54.357z"/>
</svg>
