<?xml version="1.0" encoding="utf-8"?>
<!-- Generator: Adobe Illustrator 16.0.0, SVG Export Plug-In . SVG Version: 6.00 Build 0)  -->
<!DOCTYPE svg PUBLIC "-//W3C//DTD SVG 1.1//EN" "http://www.w3.org/Graphics/SVG/1.1/DTD/svg11.dtd">
<svg version="1.1" id="Layer_1" xmlns="http://www.w3.org/2000/svg" xmlns:xlink="http://www.w3.org/1999/xlink" x="0px" y="0px"
	 width="300px" height="64.328px" viewBox="0 0 300 64.328" enable-background="new 0 0 300 64.328" xml:space="preserve">
<g>
	<linearGradient id="SVGID_1_" gradientUnits="userSpaceOnUse" x1="-135.5815" y1="14.6001" x2="445.1553" y2="14.6001">
		<stop  offset="0" style="stop-color:#956C45"/>
		<stop  offset="0.1186" style="stop-color:#B17F54"/>
		<stop  offset="0.3993" style="stop-color:#EFAB76"/>
		<stop  offset="0.6631" style="stop-color:#C08A5C"/>
		<stop  offset="0.8759" style="stop-color:#A1744B"/>
		<stop  offset="0.9944" style="stop-color:#956C45"/>
	</linearGradient>
	<path fill="url(#SVGID_1_)" d="M19.415,22.58h-4.99l-1.151-4.158H6.141L4.99,22.58H0L6.492,1.278h6.396L19.415,22.58z
		 M7.227,14.425h4.894L9.69,5.501L7.227,14.425z M31.771,22.58l-0.32-0.991C29.66,22.58,28.061,22.9,27.006,22.9
		c-2.88,0-4.062-2.08-4.062-4.734c0-3.135,1.44-4.382,4.638-4.382h3.357v-1.183c0-1.6-0.287-2.143-2.75-2.143
		c-1.375,0-2.75,0.16-4.222,0.448L23.36,7.452c1.471-0.448,3.805-0.769,5.597-0.769c5.404,0,6.588,1.632,6.588,5.949v9.947H31.771z
		 M30.938,16.983h-2.206c-0.992,0-1.375,0.255-1.375,1.119s0.352,1.216,1.248,1.216c0.958,0,1.63-0.224,2.333-0.544V16.983z
		 M45.598,13.081v9.499h-4.607V7.004h3.838l0.32,1.504c0.958-0.641,2.943-1.567,4.19-1.824l0.383,4.351
		C48.348,11.578,46.587,12.378,45.598,13.081z M59.163,22.9c-2.974,0-4.701-1.12-4.701-3.999v-8.188h-2.112v-3.71h2.112V3.262
		l4.604-0.64v4.382h3.553l-0.258,3.71h-3.295v7.548c0,0.639,0.386,0.863,0.961,0.863c0.511,0,1.248-0.064,1.919-0.288l0.542,3.485
		C61.465,22.676,60.218,22.9,59.163,22.9z M67.069,5.054V0.16h4.607v4.894H67.069z M67.069,22.58V7.004h4.607V22.58H67.069z
		 M103.414,22.58h-4.99l-1.151-4.158h-7.133l-1.151,4.158H84l6.493-21.302h6.396L103.414,22.58z M91.227,14.425h4.893l-2.43-8.923
		L91.227,14.425z M116.506,22.58V12.281c0-0.703-0.32-1.12-1.12-1.12c-0.831,0-2.364,0.639-3.357,1.151V22.58h-4.607V0.64L111.964,0
		v8.124c1.888-0.863,3.773-1.44,5.565-1.44c2.653,0,3.583,1.983,3.583,4.99V22.58H116.506z M131.165,7.004v10.299
		c0,0.704,0.32,1.12,1.12,1.12c0.833,0,2.367-0.576,3.359-1.12V7.004h4.604V22.58h-3.422l-0.479-1.184
		c-1.919,0.927-4.414,1.504-6.206,1.504c-2.654,0-3.581-1.983-3.581-4.99V7.004H131.165z M143.457,26.194
		c1.438-1.344,2.398-2.112,2.398-3.487V7.004h4.604v16.312c0,1.855-1.375,3.519-4.222,5.885L143.457,26.194z M145.855,5.054V0.16
		h4.604v4.894H145.855z M164.413,22.58l-0.32-0.991c-1.792,0.991-3.391,1.312-4.445,1.312c-2.88,0-4.062-2.08-4.062-4.734
		c0-3.135,1.44-4.382,4.638-4.382h3.357v-1.183c0-1.6-0.287-2.143-2.75-2.143c-1.375,0-2.75,0.16-4.221,0.448l-0.607-3.454
		c1.471-0.448,3.805-0.769,5.596-0.769c5.404,0,6.589,1.632,6.589,5.949v9.947H164.413z M163.58,16.983h-2.206
		c-0.992,0-1.375,0.255-1.375,1.119s0.352,1.216,1.247,1.216c0.958,0,1.631-0.224,2.334-0.544V16.983z M186.588,10.746l-0.32,11.834
		h-4.638l0.896-21.302h4.8l5.117,13.562l5.117-13.562h4.797l0.896,21.302h-4.639l-0.32-11.834l-3.711,9.084h-4.284L186.588,10.746z
		 M216.894,22.58l-0.32-0.991c-1.792,0.991-3.391,1.312-4.445,1.312c-2.88,0-4.062-2.08-4.062-4.734c0-3.135,1.44-4.382,4.638-4.382
		h3.357v-1.183c0-1.6-0.287-2.143-2.75-2.143c-1.375,0-2.75,0.16-4.222,0.448l-0.607-3.454c1.471-0.448,3.805-0.769,5.596-0.769
		c5.404,0,6.589,1.632,6.589,5.949v9.947H216.894z M216.061,16.983h-2.206c-0.992,0-1.375,0.255-1.375,1.119
		s0.352,1.216,1.247,1.216c0.959,0,1.631-0.224,2.334-0.544V16.983z M235.196,22.58V12.281c0-0.703-0.32-1.12-1.12-1.12
		c-0.831,0-2.364,0.639-3.356,1.151V22.58h-4.607V0.64L230.654,0v8.124c1.888-0.863,3.773-1.44,5.565-1.44
		c2.653,0,3.583,1.983,3.583,4.99V22.58H235.196z M250.624,22.9c-2.975,0-4.701-1.12-4.701-3.999v-8.188h-2.112v-3.71h2.112V3.262
		l4.604-0.64v4.382h3.55l-0.256,3.71h-3.294v7.548c0,0.639,0.386,0.863,0.961,0.863c0.511,0,1.247-0.064,1.919-0.288l0.542,3.485
		C252.926,22.676,251.679,22.9,250.624,22.9z M266.877,22.58l-0.32-0.991c-1.792,0.991-3.391,1.312-4.446,1.312
		c-2.88,0-4.062-2.08-4.062-4.734c0-3.135,1.44-4.382,4.639-4.382h3.357v-1.183c0-1.6-0.287-2.143-2.751-2.143
		c-1.375,0-2.75,0.16-4.222,0.448l-0.606-3.454c1.472-0.448,3.805-0.769,5.597-0.769c5.404,0,6.589,1.632,6.589,5.949v9.947H266.877
		z M266.044,16.983h-2.206c-0.992,0-1.375,0.255-1.375,1.119s0.352,1.216,1.247,1.216c0.958,0,1.631-0.224,2.334-0.544V16.983z
		 M285.179,22.58V12.281c0-0.703-0.32-1.12-1.119-1.12c-0.831,0-2.367,0.576-3.357,1.12V22.58h-4.606V7.004h3.422l0.481,1.184
		c1.917-0.927,4.412-1.504,6.203-1.504c2.657,0,3.584,1.983,3.584,4.99V22.58H285.179z M295.394,5.054V0.16H300v4.894H295.394z
		 M295.394,22.58V7.004H300V22.58H295.394z"/>
	<g>
		<path fill="#FFFFFF" d="M69.893,45.713c3.453,0,4.432,1.792,4.432,4.201v5.8c0,2.409-0.979,4.2-4.432,4.2h-4.693V45.713H69.893z
			 M66.46,58.784h3.453c2.386,0,3.156-0.979,3.156-3.005v-5.928c0-2.026-0.771-3.008-3.156-3.008H66.46V58.784z"/>
		<path fill="#FFFFFF" d="M82.158,59.039c1.068,0,2.261-0.213,3.287-0.489l0.213,1.003c-0.963,0.341-2.328,0.575-3.583,0.575
			c-2.922,0-3.859-1.516-3.859-3.776v-3.261c0-2.13,0.958-3.773,3.88-3.773s3.776,1.644,3.776,3.773v2.006H79.45v1.3
			C79.45,58.253,80.091,59.039,82.158,59.039z M79.45,53.987h5.203V53.05c0-1.75-0.62-2.667-2.558-2.667
			c-1.942,0-2.646,0.917-2.646,2.667V53.987z"/>
		<path fill="#FFFFFF" d="M92.763,60.128c-1.047,0-2.281-0.214-3.052-0.534l0.213-1.002c0.896,0.278,1.985,0.427,2.75,0.427
			c1.922,0,2.302-0.362,2.302-1.683c0-1.494-0.042-1.643-2.406-2.197c-2.604-0.62-2.818-1.258-2.818-3.157
			c0-1.727,0.834-2.664,3.391-2.664c0.963,0,2.135,0.128,2.943,0.362l-0.125,1.044c-0.833-0.169-2.047-0.299-2.901-0.299
			c-1.812,0-2.067,0.469-2.067,1.599c0,1.43,0.083,1.578,2.005,2.07c3.047,0.769,3.219,1.258,3.219,3.198
			C96.216,59.17,95.534,60.128,92.763,60.128z"/>
		<path fill="#FFFFFF" d="M100.378,47.57v-2.281h1.239v2.281H100.378z M100.378,59.914V49.528h1.239v10.386H100.378z"/>
		<path fill="#FFFFFF" d="M109.873,56.737c-0.531,0-0.958-0.042-1.385-0.128c-0.578,0.469-0.812,0.873-0.812,1.365
			c0,0.403,0.234,0.682,0.938,0.747c1.302,0.104,1.599,0.125,2.984,0.234c1.901,0.148,2.583,1.021,2.583,2.474
			c0,2.151-1.067,2.898-4.438,2.898c-0.958,0-2.536-0.192-3.646-0.513l0.192-0.979c1.026,0.234,2.391,0.428,3.495,0.428
			c2.817,0,3.177-0.578,3.177-1.771c0-1.023-0.422-1.427-1.661-1.516c-1.323-0.083-1.427-0.083-2.812-0.189
			c-1.537-0.128-2.047-0.917-2.047-1.836c0-0.553,0.234-1.193,0.979-1.745c-1.047-0.599-1.537-1.644-1.537-3.115v-0.127
			c0-2.347,1.047-3.646,3.99-3.646c0.703,0,1.255,0.065,1.75,0.211h2.854v0.896l-1.302,0.109c0.469,0.594,0.683,1.427,0.683,2.43
			v0.127C113.857,55.436,112.602,56.737,109.873,56.737z M109.873,50.383c-2.068,0-2.792,0.641-2.792,2.536v0.214
			c0,1.964,0.896,2.537,2.792,2.537s2.792-0.659,2.792-2.537v-0.214C112.664,51.044,111.94,50.383,109.873,50.383z"/>
		<path fill="#FFFFFF" d="M124.675,59.914v-8.401c0-0.766-0.406-1.044-1.13-1.044c-0.854,0-2.688,0.513-3.984,1.195v8.25h-1.24
			V49.528h1.088l0.083,0.94c1.109-0.534,2.963-1.151,4.224-1.151c1.62,0,2.198,0.917,2.198,2.347v8.25H124.675z"/>
		<path fill="#FFFFFF" d="M133.915,59.039c1.062,0,2.26-0.213,3.281-0.489l0.214,1.003c-0.959,0.341-2.323,0.575-3.584,0.575
			c-2.922,0-3.859-1.516-3.859-3.776v-3.261c0-2.13,0.964-3.773,3.88-3.773c2.922,0,3.776,1.644,3.776,3.773v2.006h-6.417v1.3
			C131.207,58.253,131.847,59.039,133.915,59.039z M131.207,53.987h5.203V53.05c0-1.75-0.62-2.667-2.562-2.667
			c-1.938,0-2.641,0.917-2.641,2.667V53.987z"/>
		<path fill="#FFFFFF" d="M146.311,50.534c-1.088,0.469-2.281,1.255-3.287,1.916v7.464h-1.234V49.528h1.109l0.062,1.578
			c1.109-0.724,2.219-1.427,3.198-1.789L146.311,50.534z"/>
		<path fill="#FFFFFF" d="M163.671,53.326v6.227c-1.234,0.361-2.641,0.575-3.964,0.575c-3.219,0-4.438-0.979-4.438-3.349v-1.365
			c0-1.255,0.724-2.43,1.964-2.685c-1.24-0.448-1.62-1.323-1.62-2.451v-1.729c0-2.025,1.297-3.047,3.984-3.047
			c1.089,0,2.729,0.211,3.797,0.49l-0.15,1.041c-1.151-0.234-2.558-0.424-3.688-0.424c-1.896,0-2.708,0.555-2.708,1.939v1.834
			c0,1.109,0.703,1.833,2.198,1.833h6.714v1.11H163.671z M162.479,58.722v-5.396h-3.198c-1.641,0-2.771,0.599-2.771,2.219v1.172
			c0,1.705,0.703,2.322,3.156,2.322C160.624,59.039,161.582,58.936,162.479,58.722z"/>
		<path fill="#FFFFFF" d="M179.057,60.128c-1.239,0-2.792-0.214-4.011-0.683l0.234-1.023c1.281,0.383,2.584,0.576,3.818,0.576
			c2.432,0,3.094-0.725,3.094-2.537c0-2.197-0.021-2.432-3.177-3.156c-3.432-0.789-3.818-1.406-3.818-4.266
			c0-2.323,0.854-3.537,4.412-3.537c1.24,0,2.708,0.211,3.667,0.49l-0.146,1.064c-1.047-0.234-2.37-0.427-3.474-0.427
			c-2.818,0-3.204,0.683-3.204,2.45c0,2.306,0.068,2.412,3.053,3.157c3.729,0.938,3.942,1.474,3.942,4.159
			C183.447,58.722,182.661,60.128,179.057,60.128z"/>
		<path fill="#FFFFFF" d="M192.963,59.722c-0.594,0.234-1.427,0.406-2.172,0.406c-1.646,0-2.349-0.599-2.349-2.239v-7.292h-2v-1.068
			h2v-2.45l1.239-0.17v2.62h3.178l-0.13,1.068h-3.047v7.164c0,0.917,0.125,1.3,1.193,1.3c0.578,0,1.234-0.104,1.854-0.297
			L192.963,59.722z"/>
		<path fill="#FFFFFF" d="M200.62,59.914l-1.532,4.201h-1.219l1.557-4.201h-0.703l-3.516-10.386h1.255l3.198,9.511l3.219-9.511h1.26
			L200.62,59.914z"/>
		<path fill="#FFFFFF" d="M207.24,59.914V45.289l1.234-0.172v14.797H207.24z"/>
		<path fill="#FFFFFF" d="M213.167,47.57v-2.281h1.239v2.281H213.167z M213.167,59.914V49.528h1.239v10.386H213.167z"/>
		<path fill="#FFFFFF" d="M221.829,60.128c-1.042,0-2.281-0.214-3.047-0.534l0.213-1.002c0.896,0.278,1.979,0.427,2.75,0.427
			c1.917,0,2.302-0.362,2.302-1.683c0-1.494-0.042-1.643-2.412-2.197c-2.599-0.62-2.812-1.258-2.812-3.157
			c0-1.727,0.833-2.664,3.391-2.664c0.958,0,2.13,0.128,2.943,0.362l-0.131,1.044c-0.828-0.169-2.047-0.299-2.896-0.299
			c-1.812,0-2.073,0.469-2.073,1.599c0,1.43,0.089,1.578,2.005,2.07c3.052,0.769,3.219,1.258,3.219,3.198
			C225.282,59.17,224.6,60.128,221.829,60.128z"/>
		<path fill="#FFFFFF" d="M234.798,59.722c-0.594,0.234-1.427,0.406-2.172,0.406c-1.646,0-2.349-0.599-2.349-2.239v-7.292h-2v-1.068
			h2v-2.45l1.24-0.17v2.62h3.177l-0.13,1.068h-3.047v7.164c0,0.917,0.125,1.3,1.192,1.3c0.578,0,1.234-0.104,1.854-0.297
			L234.798,59.722z"/>
	</g>
</g>
</svg>
