<?xml version="1.0" encoding="utf-8"?>
<!-- Generator: Adobe Illustrator 16.0.0, SVG Export Plug-In . SVG Version: 6.00 Build 0)  -->
<!DOCTYPE svg PUBLIC "-//W3C//DTD SVG 1.1//EN" "http://www.w3.org/Graphics/SVG/1.1/DTD/svg11.dtd">
<svg version="1.1" id="Layer_1" xmlns="http://www.w3.org/2000/svg" xmlns:xlink="http://www.w3.org/1999/xlink" x="0px" y="0px"
	 width="221.498px" height="4.114px" viewBox="0 0 221.498 4.114" enable-background="new 0 0 221.498 4.114" xml:space="preserve">
<linearGradient id="SVGID_1_" gradientUnits="userSpaceOnUse" x1="-19.3848" y1="2.0571" x2="235.6231" y2="2.0571">
	<stop  offset="0" style="stop-color:#956C45"/>
	<stop  offset="0.1186" style="stop-color:#B17F54"/>
	<stop  offset="0.3993" style="stop-color:#EFAB76"/>
	<stop  offset="0.6631" style="stop-color:#C08A5C"/>
	<stop  offset="0.8759" style="stop-color:#A1744B"/>
	<stop  offset="0.9944" style="stop-color:#956C45"/>
</linearGradient>
<path fill="url(#SVGID_1_)" d="M3.971,3.154L4.732,0.06h0.75l-0.99,3.994h-1.02L2.74,0.839L2.01,4.054H0.99L0,0.06h0.75l0.762,3.094
	L2.238,0.06h1.006L3.971,3.154z M9.299,2.884c0,0.666-0.385,1.23-1.512,1.23S6.275,3.55,6.275,2.884V1.229
	C6.275,0.563,6.66,0,7.787,0s1.512,0.563,1.512,1.229V2.884z M7.031,2.842c0,0.377,0.193,0.606,0.756,0.606
	c0.564,0,0.756-0.229,0.756-0.606V1.271c0-0.377-0.191-0.605-0.756-0.605c-0.562,0-0.756,0.228-0.756,0.605V2.842z M12.959,3.538H12
	l-0.738-2.069l-0.066,2.584h-0.773l0.18-3.994h0.846l1.031,2.836l1.033-2.836h0.844l0.182,3.994h-0.775l-0.064-2.584L12.959,3.538z
	 M15.75,0.06h2.447v0.666h-1.691v0.965h1.559v0.666h-1.559v1.031h1.691v0.666H15.75V0.06z M20.088,1.025v3.028h-0.736V0.06h1.006
	l1.518,3.035V0.06h0.738v3.994h-1.008L20.088,1.025z M24.971,4.114c-0.455,0-0.982-0.115-1.246-0.24l0.131-0.594
	c0.373,0.113,0.732,0.186,1.127,0.186c0.547,0,0.637-0.113,0.637-0.498c0-0.443-0.012-0.479-0.732-0.635
	c-0.965-0.216-1.098-0.402-1.098-1.247C23.789,0.36,24.119,0,25.133,0c0.348,0,0.768,0.042,1.164,0.132l-0.084,0.636
	c-0.33-0.072-0.721-0.12-1.068-0.12c-0.51,0-0.6,0.108-0.6,0.456c0,0.456,0.012,0.468,0.701,0.635
	c1.074,0.258,1.129,0.432,1.129,1.229C26.375,3.724,26.152,4.114,24.971,4.114z M31.107,3.154l0.762-3.094h0.75l-0.99,3.994h-1.018
	l-0.732-3.214l-0.732,3.214h-1.02L27.139,0.06h0.75l0.762,3.094l0.725-3.094h1.008L31.107,3.154z M33.535,0.06h2.445v0.666h-1.691
	v0.965h1.561v0.666h-1.561v1.031h1.691v0.666h-2.445V0.06z M39.449,3.226h-1.482l-0.252,0.828h-0.791l1.26-3.994h1.055l1.26,3.994
	h-0.791L39.449,3.226z M38.152,2.573h1.104l-0.545-1.889L38.152,2.573z M43.865,4.054l-0.918-1.319h-0.721v1.319h-0.754V0.06h1.637
	c0.93,0,1.271,0.377,1.271,1.079v0.522c0,0.479-0.18,0.815-0.6,0.965l0.988,1.427H43.865z M43.078,0.726h-0.852v1.355h0.852
	c0.414,0,0.547-0.15,0.547-0.485V1.199C43.625,0.863,43.48,0.726,43.078,0.726z M47.377,1.679h0.742v0.839h-0.742V1.679z
	 M53.5,3.538h-0.959l-0.738-2.069l-0.066,2.584h-0.773l0.18-3.994h0.846l1.031,2.836l1.033-2.836h0.844l0.182,3.994h-0.775
	l-0.064-2.584L53.5,3.538z M56.293,0.06h2.445v0.666h-1.691v0.965h1.561v0.666h-1.561v1.031h1.691v0.666h-2.445V0.06z M60.629,1.025
	v3.028h-0.736V0.06h1.006l1.518,3.035V0.06h0.738v3.994h-1.008L60.629,1.025z M65.514,4.114c-0.457,0-0.984-0.115-1.248-0.24
	l0.133-0.594c0.371,0.113,0.73,0.186,1.127,0.186c0.545,0,0.635-0.113,0.635-0.498c0-0.443-0.012-0.479-0.73-0.635
	c-0.967-0.216-1.098-0.402-1.098-1.247C64.332,0.36,64.662,0,65.676,0c0.348,0,0.768,0.042,1.162,0.132l-0.084,0.636
	c-0.33-0.072-0.719-0.12-1.066-0.12c-0.51,0-0.6,0.108-0.6,0.456c0,0.456,0.012,0.468,0.701,0.635
	c1.074,0.258,1.127,0.432,1.127,1.229C66.916,3.724,66.695,4.114,65.514,4.114z M71.648,3.154L72.41,0.06h0.75l-0.99,3.994h-1.018
	L70.42,0.839l-0.732,3.214h-1.02L67.68,0.06h0.75l0.762,3.094l0.725-3.094h1.008L71.648,3.154z M74.076,0.06h2.445v0.666H74.83
	v0.965h1.561v0.666H74.83v1.031h1.691v0.666h-2.445V0.06z M79.99,3.226h-1.48l-0.252,0.828h-0.791l1.258-3.994h1.057l1.258,3.994
	h-0.791L79.99,3.226z M78.695,2.573h1.104l-0.547-1.889L78.695,2.573z M84.406,4.054l-0.918-1.319H82.77v1.319h-0.756V0.06h1.637
	c0.93,0,1.271,0.377,1.271,1.079v0.522c0,0.479-0.18,0.815-0.6,0.965l0.99,1.427H84.406z M83.621,0.726H82.77v1.355h0.852
	c0.414,0,0.545-0.15,0.545-0.485V1.199C84.166,0.863,84.023,0.726,83.621,0.726z M87.918,1.679h0.742v0.839h-0.742V1.679z
	 M91.566,4.054V0.06h2.469v0.666H92.32v1.062h1.584v0.666H92.32v1.601H91.566z M97.023,3.226h-1.48l-0.252,0.828H94.5l1.258-3.994
	h1.057l1.258,3.994h-0.791L97.023,3.226z M95.729,2.573h1.104l-0.547-1.889L95.729,2.573z M100.133,4.114
	c-0.457,0-0.984-0.115-1.248-0.24l0.133-0.594c0.371,0.113,0.73,0.186,1.127,0.186c0.545,0,0.635-0.113,0.635-0.498
	c0-0.443-0.012-0.479-0.73-0.635c-0.967-0.216-1.098-0.402-1.098-1.247c0-0.726,0.33-1.085,1.344-1.085
	c0.348,0,0.768,0.042,1.162,0.132l-0.084,0.636c-0.33-0.072-0.719-0.12-1.066-0.12c-0.51,0-0.6,0.108-0.6,0.456
	c0,0.456,0.012,0.468,0.701,0.635c1.074,0.258,1.127,0.432,1.127,1.229C101.535,3.724,101.314,4.114,100.133,4.114z M104.896,4.054
	V2.369h-1.482v1.685h-0.754V0.06h0.754v1.643h1.482V0.06h0.756v3.994H104.896z M107.711,4.054h-0.756V0.06h0.756V4.054z
	 M111.945,2.884c0,0.666-0.385,1.23-1.512,1.23s-1.512-0.564-1.512-1.23V1.229c0-0.666,0.385-1.229,1.512-1.229
	s1.512,0.563,1.512,1.229V2.884z M109.678,2.842c0,0.377,0.193,0.606,0.756,0.606c0.564,0,0.756-0.229,0.756-0.606V1.271
	c0-0.377-0.191-0.605-0.756-0.605c-0.562,0-0.756,0.228-0.756,0.605V2.842z M113.867,1.025v3.028h-0.738V0.06h1.008l1.518,3.035
	V0.06h0.736v3.994h-1.008L113.867,1.025z M121.521,3.226h-1.48l-0.252,0.828h-0.791l1.258-3.994h1.057l1.258,3.994h-0.791
	L121.521,3.226z M120.227,2.573h1.104l-0.547-1.889L120.227,2.573z M123.346,1.157c0-0.731,0.426-1.157,1.422-1.157
	c0.371,0,0.756,0.048,1.086,0.132l-0.084,0.654c-0.324-0.06-0.701-0.102-0.979-0.102c-0.521,0-0.689,0.18-0.689,0.605v1.535
	c0,0.426,0.168,0.606,0.689,0.606c0.277,0,0.654-0.043,0.979-0.103l0.084,0.653c-0.33,0.084-0.715,0.133-1.086,0.133
	c-0.996,0-1.422-0.426-1.422-1.158V1.157z M126.766,1.157c0-0.731,0.426-1.157,1.422-1.157c0.371,0,0.756,0.048,1.086,0.132
	l-0.084,0.654c-0.324-0.06-0.701-0.102-0.979-0.102c-0.521,0-0.689,0.18-0.689,0.605v1.535c0,0.426,0.168,0.606,0.689,0.606
	c0.277,0,0.654-0.043,0.979-0.103l0.084,0.653c-0.33,0.084-0.715,0.133-1.086,0.133c-0.996,0-1.422-0.426-1.422-1.158V1.157z
	 M130.367,0.06h2.447v0.666h-1.691v0.965h1.559v0.666h-1.559v1.031h1.691v0.666h-2.447V0.06z M135.053,4.114
	c-0.457,0-0.984-0.115-1.248-0.24l0.133-0.594c0.371,0.113,0.73,0.186,1.127,0.186c0.545,0,0.635-0.113,0.635-0.498
	c0-0.443-0.012-0.479-0.73-0.635c-0.967-0.216-1.098-0.402-1.098-1.247c0-0.726,0.33-1.085,1.344-1.085
	c0.348,0,0.768,0.042,1.162,0.132l-0.084,0.636c-0.33-0.072-0.719-0.12-1.066-0.12c-0.51,0-0.6,0.108-0.6,0.456
	c0,0.456,0.012,0.468,0.701,0.635c1.074,0.258,1.127,0.432,1.127,1.229C136.455,3.724,136.234,4.114,135.053,4.114z M138.664,4.114
	c-0.455,0-0.982-0.115-1.246-0.24l0.131-0.594c0.373,0.113,0.732,0.186,1.127,0.186c0.547,0,0.637-0.113,0.637-0.498
	c0-0.443-0.012-0.479-0.732-0.635c-0.965-0.216-1.098-0.402-1.098-1.247c0-0.726,0.33-1.085,1.344-1.085
	c0.348,0,0.768,0.042,1.164,0.132l-0.084,0.636c-0.33-0.072-0.721-0.12-1.068-0.12c-0.51,0-0.6,0.108-0.6,0.456
	c0,0.456,0.012,0.468,0.701,0.635c1.074,0.258,1.129,0.432,1.129,1.229C140.068,3.724,139.846,4.114,138.664,4.114z M144.123,2.884
	c0,0.666-0.385,1.23-1.512,1.23S141.1,3.55,141.1,2.884V1.229c0-0.666,0.385-1.229,1.512-1.229s1.512,0.563,1.512,1.229V2.884z
	 M141.855,2.842c0,0.377,0.193,0.606,0.756,0.606c0.564,0,0.756-0.229,0.756-0.606V1.271c0-0.377-0.191-0.605-0.756-0.605
	c-0.562,0-0.756,0.228-0.756,0.605V2.842z M147.699,4.054l-0.918-1.319h-0.719v1.319h-0.756V0.06h1.637
	c0.93,0,1.271,0.377,1.271,1.079v0.522c0,0.479-0.18,0.815-0.6,0.965l0.99,1.427H147.699z M146.914,0.726h-0.852v1.355h0.852
	c0.414,0,0.545-0.15,0.545-0.485V1.199C147.459,0.863,147.316,0.726,146.914,0.726z M150.363,4.054h-0.756V0.06h0.756V4.054z
	 M151.666,0.06h2.447v0.666h-1.691v0.965h1.559v0.666h-1.559v1.031h1.691v0.666h-2.447V0.06z M156.352,4.114
	c-0.455,0-0.982-0.115-1.246-0.24l0.131-0.594c0.373,0.113,0.732,0.186,1.127,0.186c0.547,0,0.637-0.113,0.637-0.498
	c0-0.443-0.012-0.479-0.732-0.635c-0.965-0.216-1.098-0.402-1.098-1.247C155.17,0.36,155.5,0,156.514,0
	c0.348,0,0.768,0.042,1.164,0.132l-0.084,0.636c-0.33-0.072-0.721-0.12-1.068-0.12c-0.51,0-0.6,0.108-0.6,0.456
	c0,0.456,0.012,0.468,0.701,0.635c1.074,0.258,1.129,0.432,1.129,1.229C157.756,3.724,157.533,4.114,156.352,4.114z M160.512,1.679
	h0.742v0.839h-0.742V1.679z M166.395,4.054V2.369h-1.48v1.685h-0.756V0.06h0.756v1.643h1.48V0.06h0.756v3.994H166.395z
	 M171.355,2.884c0,0.666-0.383,1.23-1.51,1.23c-1.129,0-1.512-0.564-1.512-1.23V1.229c0-0.666,0.383-1.229,1.512-1.229
	c1.127,0,1.51,0.563,1.51,1.229V2.884z M169.09,2.842c0,0.377,0.191,0.606,0.756,0.606c0.562,0,0.756-0.229,0.756-0.606V1.271
	c0-0.377-0.193-0.605-0.756-0.605c-0.564,0-0.756,0.228-0.756,0.605V2.842z M175.018,3.538h-0.961l-0.736-2.069l-0.066,2.584h-0.773
	l0.18-3.994h0.846l1.031,2.836l1.031-2.836h0.846l0.18,3.994h-0.773l-0.066-2.584L175.018,3.538z M177.809,0.06h2.445v0.666h-1.691
	v0.965h1.561v0.666h-1.561v1.031h1.691v0.666h-2.445V0.06z M185.266,3.226h-1.482l-0.252,0.828h-0.791L184,0.06h1.055l1.26,3.994
	h-0.791L185.266,3.226z M183.969,2.573h1.104l-0.545-1.889L183.969,2.573z M187.09,1.157c0-0.731,0.426-1.157,1.422-1.157
	c0.371,0,0.754,0.048,1.084,0.132l-0.084,0.654c-0.322-0.06-0.701-0.102-0.977-0.102c-0.521,0-0.689,0.18-0.689,0.605v1.535
	c0,0.426,0.168,0.606,0.689,0.606c0.275,0,0.654-0.043,0.977-0.103l0.084,0.653c-0.33,0.084-0.713,0.133-1.084,0.133
	c-0.996,0-1.422-0.426-1.422-1.158V1.157z M190.51,1.157c0-0.731,0.426-1.157,1.422-1.157c0.371,0,0.754,0.048,1.084,0.132
	l-0.084,0.654c-0.322-0.06-0.701-0.102-0.977-0.102c-0.521,0-0.689,0.18-0.689,0.605v1.535c0,0.426,0.168,0.606,0.689,0.606
	c0.275,0,0.654-0.043,0.977-0.103l0.084,0.653c-0.33,0.084-0.713,0.133-1.084,0.133c-0.996,0-1.422-0.426-1.422-1.158V1.157z
	 M194.111,0.06h2.445v0.666h-1.691v0.965h1.561v0.666h-1.561v1.031h1.691v0.666h-2.445V0.06z M198.795,4.114
	c-0.455,0-0.982-0.115-1.246-0.24l0.131-0.594c0.373,0.113,0.732,0.186,1.127,0.186c0.547,0,0.637-0.113,0.637-0.498
	c0-0.443-0.012-0.479-0.732-0.635c-0.965-0.216-1.098-0.402-1.098-1.247c0-0.726,0.33-1.085,1.344-1.085
	c0.348,0,0.768,0.042,1.164,0.132l-0.084,0.636c-0.33-0.072-0.721-0.12-1.068-0.12c-0.51,0-0.6,0.108-0.6,0.456
	c0,0.456,0.012,0.468,0.701,0.635c1.074,0.258,1.129,0.432,1.129,1.229C200.199,3.724,199.977,4.114,198.795,4.114z M202.408,4.114
	c-0.457,0-0.984-0.115-1.248-0.24l0.133-0.594c0.371,0.113,0.73,0.186,1.127,0.186c0.545,0,0.635-0.113,0.635-0.498
	c0-0.443-0.012-0.479-0.73-0.635c-0.967-0.216-1.098-0.402-1.098-1.247c0-0.726,0.33-1.085,1.344-1.085
	c0.348,0,0.768,0.042,1.162,0.132l-0.084,0.636c-0.33-0.072-0.719-0.12-1.066-0.12c-0.51,0-0.6,0.108-0.6,0.456
	c0,0.456,0.012,0.468,0.701,0.635c1.074,0.258,1.127,0.432,1.127,1.229C203.811,3.724,203.59,4.114,202.408,4.114z M207.865,2.884
	c0,0.666-0.383,1.23-1.51,1.23c-1.129,0-1.512-0.564-1.512-1.23V1.229c0-0.666,0.383-1.229,1.512-1.229
	c1.127,0,1.51,0.563,1.51,1.229V2.884z M205.6,2.842c0,0.377,0.191,0.606,0.756,0.606c0.562,0,0.756-0.229,0.756-0.606V1.271
	c0-0.377-0.193-0.605-0.756-0.605c-0.564,0-0.756,0.228-0.756,0.605V2.842z M211.443,4.054l-0.918-1.319h-0.721v1.319h-0.754V0.06
	h1.637c0.93,0,1.271,0.377,1.271,1.079v0.522c0,0.479-0.18,0.815-0.6,0.965l0.988,1.427H211.443z M210.656,0.726h-0.852v1.355h0.852
	c0.414,0,0.547-0.15,0.547-0.485V1.199C211.203,0.863,211.059,0.726,210.656,0.726z M214.107,4.054h-0.756V0.06h0.756V4.054z
	 M215.41,0.06h2.447v0.666h-1.691v0.965h1.559v0.666h-1.559v1.031h1.691v0.666h-2.447V0.06z M220.096,4.114
	c-0.457,0-0.984-0.115-1.248-0.24l0.133-0.594c0.371,0.113,0.73,0.186,1.127,0.186c0.545,0,0.635-0.113,0.635-0.498
	c0-0.443-0.012-0.479-0.73-0.635c-0.967-0.216-1.098-0.402-1.098-1.247c0-0.726,0.33-1.085,1.344-1.085
	c0.348,0,0.768,0.042,1.162,0.132l-0.084,0.636c-0.33-0.072-0.719-0.12-1.066-0.12c-0.51,0-0.6,0.108-0.6,0.456
	c0,0.456,0.012,0.468,0.701,0.635c1.074,0.258,1.127,0.432,1.127,1.229C221.498,3.724,221.277,4.114,220.096,4.114z"/>
</svg>
